<?xml version="1.0" standalone="no"?>
<!DOCTYPE svg PUBLIC "-//W3C//DTD SVG 20010904//EN"
 "http://www.w3.org/TR/2001/REC-SVG-20010904/DTD/svg10.dtd">
<svg version="1.0" xmlns="http://www.w3.org/2000/svg"
 width="700.000000pt" height="700.000000pt" viewBox="0 0 700.000000 700.000000"
 preserveAspectRatio="xMidYMid meet">
<metadata>
Created by potrace 1.11, written by Peter Selinger 2001-2013
</metadata>
<g transform="translate(0.000000,700.000000) scale(0.100000,-0.100000)"
fill="#000000" stroke="none">
<path d="M5425 4974 c-39 -26 -103 -90 -1586 -1570 -549 -547 -1001 -994
-1006 -994 -4 0 -206 198 -448 440 -242 243 -454 450 -472 461 -74 46 -185 13
-226 -68 -27 -52 -22 -123 12 -169 47 -63 1054 -1061 1076 -1066 18 -4 89 -4
120 1 19 2 74 57 1429 1408 1041 1038 1337 1338 1344 1365 20 74 -10 153 -75
195 -43 28 -125 26 -168 -3z"/>
</g>
</svg>
